<svg id="Layer_1" data-name="Layer 1" xmlns="http://www.w3.org/2000/svg" viewBox="0 0 228.04 223.18"><defs><style>.cls-1{fill:#fff;}</style></defs><polygon class="cls-1" points="109.91 80.76 107.95 91.95 111.65 91.95 109.91 80.76"/><path class="cls-1" d="M67.08,120.09a2.58,2.58,0,0,0-2.74,2.83v15.15a2.77,2.77,0,1,0,5.53,0V122.92A2.6,2.6,0,0,0,67.08,120.09Z" transform="translate(-7.5 -6.79)"/><path class="cls-1" d="M46.53,120.44h-3v9.27h3c1.35,0,1.92-.74,1.92-2.18v-4.92C48.45,121.18,47.88,120.44,46.53,120.44Z" transform="translate(-7.5 -6.79)"/><polygon class="cls-1" points="39.73 91.95 43.43 91.95 41.69 80.76 39.73 91.95"/><path class="cls-1" d="M233.17,88.27A81.53,81.53,0,0,0,218,54.8c-11.71-15.15-27.76-24.24-44.11-33a21.17,21.17,0,0,0-6.58-2.23c-1.86-.29-3.51.63-5.3-1.55-1.17-1.44-4.46-1.14-6.81-1.62l-.16.77c.29.12.6.21.88.35s.53.32,1.17.71c-15.51-2.61-30.46-1.84-45.39,1a5.63,5.63,0,0,1,2.32-.91c5.75-.78,11.49-1.86,17.27-2.17,8.54-.46,17.1-2,25.68-.28q7.22,1.48,14.45,2.81c2.18.4,4.53.24,6.54,1,4.21,1.61,8.24,3.69,12.37,5.54s8.08,3.64,12.19,5.29c1,.39,2.21.06,3.32.06l.16-.94c-2-1-4.11-2-6.11-3.11s-4-2.34-6-3.52h0l17.34,5.94.67-.93a25.48,25.48,0,0,0-3.2-3.5,12.2,12.2,0,0,0-1-.72c-1.1-.67-2.3-1.2-3.42-1.83a1.63,1.63,0,0,0,.94-.77.45.45,0,0,0,0-.16.78.78,0,0,0,0-.3,2.29,2.29,0,0,0-1-1,36.84,36.84,0,0,0-4.51-1.93l-.46.9,5.08,3.24c-1.21-.46-2.43-.88-3.62-1.38-6.35-2.69-12.51-6.09-19.1-7.92a190.89,190.89,0,0,0-27.71-5.54c-6-.74-12.35.07-18.5.56-6.43.52-12.83,1.5-19.24,2.24a4.18,4.18,0,0,1-1.92-.23c-.57-.22-1-1.05-1.54-1a93.88,93.88,0,0,0-32.19,7.94c-3.08,1.34-6,3.67-9.16,4-3.41.39-5.49,2.32-8,3.95-.57.38-1.25.57-1.86.9-4.28,2.34-9.07,4.09-12.71,7.18A107.39,107.39,0,0,0,32.62,49C23.09,61.43,14.86,74.77,11.68,90.52c-1.48,7.32-2.78,14.68-4.13,22a5.75,5.75,0,0,0,.11,2,20.93,20.93,0,0,1,.78,3.92c0,3.51-.58,7-.38,10.54.21,3.79,1.08,7.53,1.58,11.31a89.46,89.46,0,0,0,11.54,33.76,14.4,14.4,0,0,0,1.34,1.69l.64-.33c-.28-.7-.52-1.41-.84-2.09-.85-1.75-3.67-3-1.34-5.56.13-.14-.11-.66-.23-1-1.9-5-3.9-9.93-5.69-15a41.58,41.58,0,0,1-2-20.86c.81,5.25,1.11,10.4,2.48,15.25,2.44,8.62,3.08,17.91,9.54,25.13,6.07,6.78,10.25,15.15,18,20.61s15.33,11.69,23.16,17.3c3.31,2.36,7.13,4,10.73,6a4.77,4.77,0,0,0,1.21.3,17.84,17.84,0,0,1-4.53.27c-.86,0-1.83.57-2.57.32-3.82-1.26-7.89-2.19-11.3-4.2-4.86-2.86-9.23-6.55-13.81-9.9-.82-.6-1.6-1.27-2.41-1.91a2.55,2.55,0,0,0,.67,2.13C48.7,206,53,210,57.92,213.13c4,2.57,8.65,4.11,13,6.07a5.61,5.61,0,0,0,1.5.18c1.86.26,3.72.51,5.57.83a2.42,2.42,0,0,1,1,.57c-.9,1.83.85,1.47,1.5,1.62,4.62,1,9.29,1.85,13.91,2.92,1.74.4,3.33,1.67,5.07,1.87,6.59.76,13.24,1,19.8,1.87,16.12,2.13,32,.25,47.77-2.73.53-.1,1.45-.58,1.43-.79-.26-1.95,1.41-1.9,2.44-2.39,1.45-.7,3.1-1,4.46-1.85,4.19-2.5,8-6.25,12.48-7.47,6.52-1.78,8.35-8.47,13.79-11,.19-.09.26-.43.42-.63.83-1,1.68-2,2.5-3.06l5.88-7.43-.66-.6L207.18,193a21.28,21.28,0,0,1-2.74,1.94,20.39,20.39,0,0,1-3.42,1l3-3.6-.49-.44-2.35,1.3c1.79-3.43,5.94-4.73,7.18-8.64a61.27,61.27,0,0,0-8.13,6c-2.62,2.23-5,4.81-7.78,6.79s-6,3.26-8.92,5.09-5.56,4.06-8.45,5.92-5.66,3.32-8.5,5l-.27-.51,5.93-3.4-.4-.74a15.38,15.38,0,0,0-2.8,1c-6.12,3.74-13.06,4.54-19.91,5.47-3.39.45-6.87.14-10.3.29-4.57.2-9.09-2.11-13.7-.29a1.53,1.53,0,0,1-1-.17c-2.6-1.21-5.2-2.44-8.14-3.83l3.78-1.24-.09-.7c-4.2.08-8.53,1.89-12.87-.79l6-.59c-2.16-1.87-3.92-1.45-5.58-1-3.27.86-5.83-.77-8.58-1.76.06-.29.12-.58.19-.87l6,1.53.24-.84-4.38-2.08a36.23,36.23,0,0,1,7.33,1.49,13.18,13.18,0,0,0,2.74.35c1.47.06,3,0,4.42.06a46.74,46.74,0,0,0,5.85.53c3.94-.25,7.88-.77,11.8-1.28a8.87,8.87,0,0,0,2.32-.95,17.48,17.48,0,0,1,3.24-1.43c6.74-1.42,13.51-2.7,20.24-4.15a20.68,20.68,0,0,0,4-1.71c-.08-.36-.15-.72-.23-1.08a20.82,20.82,0,0,0-4,0c-6.92,1.4-13.77,3.13-20.71,4.32-3.75.64-7.65.43-11.48.61,0-.29,0-.57,0-.86,2-.26,4.08-.5,6.11-.8a61.38,61.38,0,0,0,16.07-4.53c5.21-2.31,11-3.22,16.55-4.88a89.39,89.39,0,0,0,23.46-11.23,11.54,11.54,0,0,0,1.32-1.21c-7.35,2.82-13.79,7.41-21.27,9.62l-.3-.62,13.14-6.9-.47-.9-3.93,1.87-.13-.23,13.8-8.73-.44-.79-14.72,4.29-.45-.54c1.55-2,3-4,4.68-5.91.61-.71,1.79-1,2.32-1.71a69.44,69.44,0,0,0,4.17-6.53c2.06-3.67,4-7.43,6-11.15.11,4.2-2.42,7.66-3.44,11.53l.76.28,6.16-13.74.26.09L192,156.37l.86.34c.52-1,1.09-2,1.53-3.08.72-1.74,1.28-3.57,2.05-5.29.88-1.93,1.47-4.42,3-5.53,2.12-1.53.92-3.19,1.27-4.76a3.51,3.51,0,0,1,.81-1.39c.3-.34,1.07-.5,1.11-.8.83-7.08,1.54-14.16,2.38-21.23.2-1.67.83-3.28,1.15-4.93a22.45,22.45,0,0,0,.42-3.83c0-1.3-.33-2.63-.17-3.9.2-1.7.72-3.36-.52-5.2l-3.07,8c-2.63-4.89-5-9.37-7.44-13.85l.37-.25L201,98.57c.74-5.19-4.21-7.29-5.73-10.71,1.22.28,2.48.54,3.73.87.66.18,1.59.3,1.87.76,1.38,2.25,3.46,3.71,5.32,5.48s2.95,4.71,4.32,7.16c.52.94.9,2,1.34,3a3.18,3.18,0,0,0,.25-2.19c-.09-.54-.17-1.09-.25-1.64,6.1,12.12,3.13,24.72,1.91,37.22l.85.08L218,114.3l.86.1q-.87,8.92-1.73,17.84l.67.08a6,6,0,0,0,.38-1.13c.54-4,2.45-7.85,1.77-12.08-.1-.63.55-1.38,1.13-2.72l1.53,4.93.75-.17.18-3.44a22,22,0,0,1,.73,3c.64,2.88,1.42,5.73,2,8.62a16.9,16.9,0,0,1,.21,4.81c-.3,2.56-1.08,5.06-1.33,7.61-.24,2.37,0,4.77,0,7.6,7.56-14.88,3.71-29.47.39-44.05l1.11-.13q1.57,7,3.14,13.93l.73-.11a11.82,11.82,0,0,0,0-3.15c-1.84-6.44-3.78-12.85-5.7-19.27a19.42,19.42,0,0,1-1.12-3.68c-.27-2.88-.63-5.65-2.86-7.8a4.62,4.62,0,0,1-.85-1.56c-1.21-3.14-2.24-6.33-5.17-8.46a15.77,15.77,0,0,1-3.21-3.36C206.76,65.41,200.35,61,194,56.64a38.9,38.9,0,0,0-5.86-2.78c-.12.25-.25.5-.38.75,2.94,2,6,3.88,8.78,6.1s5.14,4.69,7.69,7.06l-.63,1c-6.13-7.62-15.92-7.79-24.23-12.39L183.54,55c-1.75-2.43-4.16-2.27-6.23-2.55-3.48-.47-6.92-1.28-9.38-3.74-3.55-3.54-7.92-4.52-12.53-5.12-2-.25-4-.19-5.9-.56a10.15,10.15,0,0,1-2.79-1.51c.13-.34.27-.68.41-1,4.74,1.36,9.83.22,14.44,2.57,1.61.82,3.3,1.47,5,2.16.54.22,1.34.6,1.69.38,2.21-1.36,4,.07,5.8.82s3.78,1.69,5.69,2.47c.52.2,1.57.33,1.65.17,1.2-2.7,3-1.08,4.44-.55,2.43.88,4.69,2.39,7.17,2.89A13.64,13.64,0,0,1,202,57.16c.44.64,1,1.17,1.48,1.79,1.64,2.21,3.18,4.49,4.92,6.61a4,4,0,0,0,2.36,1c.26,0,.67-.92,1.2-1.71a15.52,15.52,0,0,0,1,3.84c1.92,3.31,4.35,6.36,6,9.78,1,2.08,2.42,2.77,4.74,3.6-.88-2.69-1.62-4.91-2.45-7.44,4,2.35,5.26,4.07,6.49,8.28.23.83.31,2.06.86,2.36,2.11,1.16,2,3.24,2.52,5.08.95,3.08,2,6.12,3,9.17.07.22.46.33,1.31.89C234.67,96,234,92.11,233.17,88.27ZM53.67,127.4c0,4.14-2.48,6.49-6.57,6.49H43.57V145h-5.4V116H47.1c4.09,0,6.57,2.35,6.57,6.53Zm-1.08-18.69-1-5.7H46.49l-1,5.7H40.4l5.83-29h6.05l5.79,29Zm22.72,29c0,4.61-3.14,7.92-8.23,7.92s-8.23-3.31-8.23-7.92V123.27c0-4.57,3.18-7.88,8.23-7.88s8.23,3.31,8.23,7.88Zm.91-29H62.73v-29h5.4v24.2h8.09Zm12.37,36.93c-5,0-8.06-3-8.06-7.48v-2h5v1.7c0,2.13,1,3.31,3,3.31a2.63,2.63,0,0,0,2.87-2.92c0-2.3-1.48-3.87-4.35-6s-6.18-5-6.18-9,2.69-7.79,7.92-7.79c4.57,0,7.62,3.13,7.62,7.44v1.87H91.42V123c0-1.78-.92-3.09-2.75-3.09a2.45,2.45,0,0,0-2.61,2.61c0,2.44,1.44,3.7,4.66,6,3.44,2.57,5.88,5.19,5.88,9.1A7.65,7.65,0,0,1,88.59,145.64Zm11.79-36.93H95.55L92.64,91.65l-3.09,17.06H84.76l-5.14-29H85l2.62,19.15,3.22-19.15H95l3,19.15,2.78-19.15h5ZM107.53,145h-5.4V116h5.4Zm1.08-36.28,5.84-29h6l5.79,29H120.8l-1-5.7h-5.14l-1,5.7Zm20,12.08h-5.32V145h-5.44v-24.2h-5.35V116H128.6ZM138.91,145h-5.39V116h5.39Zm41.23-29v4.66H171.7v7.18h5.83v4.26H171.7v8.06h8.44V145H166.3V116Zm-29.3-16.13h5v1.7c0,2.13,1,3.31,3,3.31a2.63,2.63,0,0,0,2.88-2.92c0-2.3-1.48-3.87-4.36-6s-6.18-5-6.18-9.06,2.7-7.79,7.93-7.79a7.19,7.19,0,0,1,7.61,7.44v1.87h-4.92V86.68c0-1.78-.91-3.09-2.74-3.09a2.45,2.45,0,0,0-2.61,2.61c0,2.44,1.44,3.7,4.66,6.06,3.44,2.56,5.88,5.18,5.88,9.09a7.66,7.66,0,0,1-8,8c-5,0-8.06-3-8.06-7.48Zm2,36.11,3.61-20h5.27l-6.44,29H150l-6.31-29h5.57Zm-5.44-56.26-6.57,17.15v11.84h-5.4V96.87L129,79.72h5.66l3.74,11.8L142,79.72Z" transform="translate(-7.5 -6.79)"/><path class="cls-1" d="M194.89,161.79c7.78-9.74,15.25-36.68,12.75-43.46-1.37,6.79-2.37,14.32-4.46,21.53S197.88,154,194.89,161.79Z" transform="translate(-7.5 -6.79)"/><path class="cls-1" d="M217.07,155.06c.67-2,1.2-3.4,1.66-4.87.53-1.72.59-3.74,1.57-5.13,2.88-4.12,2.5-8.74,2.64-13.31C220.92,135,216.12,153.13,217.07,155.06Z" transform="translate(-7.5 -6.79)"/><path class="cls-1" d="M24.72,175.46c.5,2.78,6.76,11.66,9.19,12.38l-8.6-12.77Z" transform="translate(-7.5 -6.79)"/><path class="cls-1" d="M51.88,201.76l-.8,1,8.08,6.59,1-1.21Z" transform="translate(-7.5 -6.79)"/><path class="cls-1" d="M225.58,163.92l1,.29c.74-2.44,1.47-4.88,2.21-7.32l-.94-.27Q226.73,160.27,225.58,163.92Z" transform="translate(-7.5 -6.79)"/><path class="cls-1" d="M222.37,173.11l.8.29,2.3-5.76-1.11-.33C223.7,169.24,223,171.17,222.37,173.11Z" transform="translate(-7.5 -6.79)"/><path class="cls-1" d="M34,190l3.43,4.8.75-.54q-1.65-2.43-3.32-4.85Z" transform="translate(-7.5 -6.79)"/></svg>